# xmcd CD database file
#
# Track frame offsets:
#	150
#	22950
#	56110
#
# Disc length: 4440 seconds
#
# Revision: 2
# Processed by: cddbd v1.5.1PL0 Copyright (c) Steve Scherf et al.
# Submitted via: CDex 1.51
#
DISCID=1e115603
DTITLE=Janne Da Arc - DOLLS
DYEAR=2004
DGENRE=Rock
TTITLE0=DOLLS
TTITLE1=マリアの爪痕 -Live at Hirakata West High School November 18th, 2003-
TTITLE2=CCCD DATE
EXTD=YEAR: 2004
EXTT0=
EXTT1=
EXTT2=
PLAYORDER=
